<svg xmlns="http://www.w3.org/2000/svg" xmlns:xlink="http://www.w3.org/1999/xlink" width="1536pt" height="1749pt" viewBox="0.00 0.00 1536.00 1748.96">
<g id="graph0" class="graph" transform="scale(1 1) rotate(0) translate(4 1744.96)">
<title>ProvenanceRecord</title>
<polygon fill="white" stroke="none" points="-4,4 -4,-1744.96 1532,-1744.96 1532,4 -4,4"/>
<g id="clust1" class="cluster">
<title>cluster_0</title>
<polygon fill="none" stroke="black" stroke-dasharray="5,2" points="862,-1514.56 862,-1732.96 1520,-1732.96 1520,-1514.56 862,-1514.56"/>
<text text-anchor="middle" x="1191" y="-1716.36" font-family="Times,serif" font-size="14.00">Industrial Metering Company</text>
</g>
<g id="clust2" class="cluster">
<title>cluster_1</title>
<polygon fill="none" stroke="black" stroke-dasharray="5,2" points="8,-1125.36 8,-1479.76 1209,-1479.76 1209,-1125.36 8,-1125.36"/>
<text text-anchor="middle" x="608.5" y="-1463.16" font-family="Times,serif" font-size="14.00">Nitrogen Fertiliser Products</text>
</g>
<g id="clust3" class="cluster">
<title>cluster_2</title>
<polygon fill="none" stroke="black" stroke-dasharray="5,2" points="195,-882.64 195,-1090.56 697,-1090.56 697,-882.64 195,-882.64"/>
<text text-anchor="middle" x="446" y="-1073.96" font-family="Times,serif" font-size="14.00">Agricultural Wholesale Supplies</text>
</g>
<g id="clust4" class="cluster">
<title>cluster_3</title>
<polygon fill="none" stroke="black" stroke-dasharray="5,2" points="321,-503.92 321,-847.84 801,-847.84 801,-503.92 321,-503.92"/>
<text text-anchor="middle" x="561" y="-831.24" font-family="Times,serif" font-size="14.00">Precise Farm Automation Co</text>
</g>
<g id="clust5" class="cluster">
<title>cluster_4</title>
<polygon fill="none" stroke="black" stroke-dasharray="5,2" points="809,-503.92 809,-847.84 1284,-847.84 1284,-503.92 809,-503.92"/>
<text text-anchor="middle" x="1046.5" y="-831.24" font-family="Times,serif" font-size="14.00">Rosemary Accountancy Software</text>
</g>
<g id="clust6" class="cluster">
<title>cluster_5</title>
<polygon fill="none" stroke="black" stroke-dasharray="5,2" points="678,-125.2 678,-469.12 1358,-469.12 1358,-125.2 678,-125.2"/>
<text text-anchor="middle" x="1018" y="-452.52" font-family="Times,serif" font-size="14.00">Sustainable Farm Systems</text>
</g>
<g id="clust7" class="cluster">
<title>cluster_6</title>
<polygon fill="none" stroke="black" stroke-dasharray="5,2" points="1048,-8 1048,-90.4 1232,-90.4 1232,-8 1048,-8"/>
<text text-anchor="middle" x="1140" y="-73.8" font-family="Times,serif" font-size="14.00">Green Bank of London</text>
</g>
<!-- g0UKhzz2vCn6&#45;RKiGkpf -->
<g id="node1" class="node">
<title>g0UKhzz2vCn6-RKiGkpf</title>
<polygon fill="none" stroke="black" points="869.87,-1647.32 1013,-1622.2 1156.13,-1647.32 1156,-1687.97 870,-1687.97 869.87,-1647.32"/>
<text text-anchor="middle" x="1013" y="-1662.76" font-family="Times,serif" font-size="14.00">permission</text>
<text text-anchor="middle" x="1013" y="-1645.96" font-family="Times,serif" font-size="14.00">g0UKhzz2vCn6-RKiGkpf</text>
</g>
<!-- buaBs2chTtKwbcWEoZB9 -->
<g id="node3" class="node">
<title>buaBs2chTtKwbcWEoZB9</title>
<polygon fill="none" stroke="black" points="1203.37,-1564.16 1032.63,-1564.16 1032.63,-1522.56 1203.37,-1522.56 1203.37,-1564.16"/>
<text text-anchor="middle" x="1118" y="-1547.56" font-family="Times,serif" font-size="14.00">transfer</text>
<text text-anchor="middle" x="1118" y="-1530.76" font-family="Times,serif" font-size="14.00">buaBs2chTtKwbcWEoZB9</text>
</g>
<!-- g0UKhzz2vCn6&#45;RKiGkpf&#45;&gt;buaBs2chTtKwbcWEoZB9 -->
<g id="edge2" class="edge">
<title>g0UKhzz2vCn6-RKiGkpf-&gt;buaBs2chTtKwbcWEoZB9</title>
<path fill="none" stroke="black" d="M1041.41,-1626.92C1057.03,-1610.09 1076.28,-1589.33 1091.58,-1572.84"/>
<polygon fill="black" stroke="black" points="1093.91,-1575.48 1098.14,-1565.76 1088.78,-1570.72 1093.91,-1575.48"/>
<text text-anchor="middle" x="1114.48" y="-1586.36" font-family="Times,serif" font-size="14.00">permissions</text>
</g>
<!-- eaOmXyQkm5c6f&#45;tXlQbN -->
<g id="node2" class="node">
<title>eaOmXyQkm5c6f-tXlQbN</title>
<polygon fill="none" stroke="black" points="1343,-1700.16 1173.81,-1658.56 1343,-1616.96 1512.19,-1658.56 1343,-1700.16"/>
<text text-anchor="middle" x="1343" y="-1662.76" font-family="Times,serif" font-size="14.00">origin</text>
<text text-anchor="middle" x="1343" y="-1645.96" font-family="Times,serif" font-size="14.00">eaOmXyQkm5c6f-tXlQbN</text>
</g>
<!-- eaOmXyQkm5c6f&#45;tXlQbN&#45;&gt;buaBs2chTtKwbcWEoZB9 -->
<g id="edge1" class="edge">
<title>eaOmXyQkm5c6f-tXlQbN-&gt;buaBs2chTtKwbcWEoZB9</title>
<path fill="none" stroke="black" d="M1288.25,-1630.01C1251.66,-1611.61 1203.9,-1587.58 1168.28,-1569.66"/>
<polygon fill="black" stroke="black" points="1169.97,-1566.59 1159.46,-1565.22 1166.82,-1572.84 1169.97,-1566.59"/>
<text text-anchor="middle" x="1229.58" y="-1586.36" font-family="Times,serif" font-size="14.00">of</text>
</g>
<!-- f4OAZr3SbEJ&#45;wzTUl3CQ -->
<g id="node4" class="node">
<title>f4OAZr3SbEJ-wzTUl3CQ</title>
<polygon fill="none" stroke="black" points="1201.43,-1426.16 1038.57,-1426.16 1034.57,-1422.16 1034.57,-1384.56 1197.43,-1384.56 1201.43,-1388.56 1201.43,-1426.16"/>
<polyline fill="none" stroke="black" points="1197.43,-1422.16 1034.57,-1422.16"/>
<polyline fill="none" stroke="black" points="1197.43,-1422.16 1197.43,-1384.56"/>
<polyline fill="none" stroke="black" points="1197.43,-1422.16 1201.43,-1426.16"/>
<text text-anchor="middle" x="1118" y="-1409.56" font-family="Times,serif" font-size="14.00">receipt</text>
<text text-anchor="middle" x="1118" y="-1392.76" font-family="Times,serif" font-size="14.00">f4OAZr3SbEJ-wzTUl3CQ</text>
</g>
<!-- buaBs2chTtKwbcWEoZB9&#45;&gt;f4OAZr3SbEJ&#45;wzTUl3CQ -->
<g id="edge3" class="edge">
<title>buaBs2chTtKwbcWEoZB9-&gt;f4OAZr3SbEJ-wzTUl3CQ</title>
<path fill="none" stroke="black" d="M1118,-1522.29C1118,-1500.09 1118,-1464.03 1118,-1438.02"/>
<polygon fill="black" stroke="black" points="1121.5,-1438.02 1118,-1428.02 1114.5,-1438.02 1121.5,-1438.02"/>
<text text-anchor="middle" x="1139.38" y="-1491.96" font-family="Times,serif" font-size="14.00">transfer</text>
</g>
<!-- bKLzQwbYWEDEj0_YKyG_ -->
<g id="node8" class="node">
<title>bKLzQwbYWEDEj0_YKyG_</title>
<polygon fill="none" stroke="black" points="704.76,-1310.96 394.94,-1310.96 315.24,-1227.76 625.06,-1227.76 704.76,-1310.96"/>
<text text-anchor="middle" x="510" y="-1273.56" font-family="Times,serif" font-size="14.00">process</text>
<text text-anchor="middle" x="510" y="-1256.76" font-family="Times,serif" font-size="14.00">bKLzQwbYWEDEj0_YKyG_</text>
</g>
<!-- f4OAZr3SbEJ&#45;wzTUl3CQ&#45;&gt;bKLzQwbYWEDEj0_YKyG_ -->
<g id="edge4" class="edge">
<title>f4OAZr3SbEJ-wzTUl3CQ-&gt;bKLzQwbYWEDEj0_YKyG_</title>
<path fill="none" stroke="black" d="M1077.11,-1384.06C1061.16,-1376.8 1042.53,-1369.09 1025,-1363.76 919.01,-1331.49 797.16,-1308.77 698.6,-1293.83"/>
<polygon fill="black" stroke="black" points="699.22,-1290.38 688.81,-1292.36 698.18,-1297.31 699.22,-1290.38"/>
<text text-anchor="middle" x="973.62" y="-1333.16" font-family="Times,serif" font-size="14.00">inputs</text>
</g>
<!-- 2nFiQDFWoEwNam4q15mi -->
<g id="node5" class="node">
<title>2nFiQDFWoEwNam4q15mi</title>
<polygon fill="none" stroke="black" points="15.94,-1394.12 172,-1369 328.06,-1394.12 327.91,-1434.77 16.09,-1434.77 15.94,-1394.12"/>
<text text-anchor="middle" x="172" y="-1409.56" font-family="Times,serif" font-size="14.00">permission</text>
<text text-anchor="middle" x="172" y="-1392.76" font-family="Times,serif" font-size="14.00">2nFiQDFWoEwNam4q15mi</text>
</g>
<!-- 2nFiQDFWoEwNam4q15mi&#45;&gt;bKLzQwbYWEDEj0_YKyG_ -->
<g id="edge7" class="edge">
<title>2nFiQDFWoEwNam4q15mi-&gt;bKLzQwbYWEDEj0_YKyG_</title>
<path fill="none" stroke="black" d="M235.97,-1379C281.01,-1361.14 342.53,-1336.75 395.87,-1315.61"/>
<polygon fill="black" stroke="black" points="397.01,-1318.92 405.02,-1311.98 394.43,-1312.41 397.01,-1318.92"/>
<text text-anchor="middle" x="394.68" y="-1333.16" font-family="Times,serif" font-size="14.00">permissions</text>
</g>
<!-- ALg5azufraPV4kd8TVQ_ -->
<g id="node9" class="node">
<title>ALg5azufraPV4kd8TVQ_</title>
<polygon fill="none" stroke="black" points="373.65,-1174.96 208.35,-1174.96 208.35,-1133.36 373.65,-1133.36 373.65,-1174.96"/>
<text text-anchor="middle" x="291" y="-1158.36" font-family="Times,serif" font-size="14.00">transfer</text>
<text text-anchor="middle" x="291" y="-1141.56" font-family="Times,serif" font-size="14.00">ALg5azufraPV4kd8TVQ_</text>
</g>
<!-- 2nFiQDFWoEwNam4q15mi&#45;&gt;ALg5azufraPV4kd8TVQ_ -->
<g id="edge9" class="edge">
<title>2nFiQDFWoEwNam4q15mi-&gt;ALg5azufraPV4kd8TVQ_</title>
<path fill="none" stroke="black" d="M182.03,-1370.36C193.43,-1333.95 213.78,-1275.03 239.11,-1227.76 247.24,-1212.59 258.07,-1196.92 267.75,-1184.04"/>
<polygon fill="black" stroke="black" points="270.3,-1186.47 273.6,-1176.4 264.74,-1182.21 270.3,-1186.47"/>
<text text-anchor="middle" x="272.56" y="-1265.16" font-family="Times,serif" font-size="14.00">permissions</text>
</g>
<!-- IlTKnGu&#45;g1niTUrSFMEu -->
<g id="node6" class="node">
<title>IlTKnGu-g1niTUrSFMEu</title>
<polygon fill="none" stroke="black" points="510,-1446.96 346.23,-1405.36 510,-1363.76 673.77,-1405.36 510,-1446.96"/>
<text text-anchor="middle" x="510" y="-1409.56" font-family="Times,serif" font-size="14.00">origin</text>
<text text-anchor="middle" x="510" y="-1392.76" font-family="Times,serif" font-size="14.00">IlTKnGu-g1niTUrSFMEu</text>
</g>
<!-- IlTKnGu&#45;g1niTUrSFMEu&#45;&gt;bKLzQwbYWEDEj0_YKyG_ -->
<g id="edge5" class="edge">
<title>IlTKnGu-g1niTUrSFMEu-&gt;bKLzQwbYWEDEj0_YKyG_</title>
<path fill="none" stroke="black" d="M510,-1363.43C510,-1350.44 510,-1335.9 510,-1322.25"/>
<polygon fill="black" stroke="black" points="513.5,-1322.55 510,-1312.55 506.5,-1322.55 513.5,-1322.55"/>
<text text-anchor="middle" x="527.11" y="-1333.16" font-family="Times,serif" font-size="14.00">inputs</text>
</g>
<!-- 6&#45;K4jDdU_K&#45;LIiDt6mFF -->
<g id="node7" class="node">
<title>6-K4jDdU_K-LIiDt6mFF</title>
<polygon fill="none" stroke="black" points="854,-1446.96 691.78,-1405.36 854,-1363.76 1016.22,-1405.36 854,-1446.96"/>
<text text-anchor="middle" x="854" y="-1409.56" font-family="Times,serif" font-size="14.00">origin</text>
<text text-anchor="middle" x="854" y="-1392.76" font-family="Times,serif" font-size="14.00">6-K4jDdU_K-LIiDt6mFF</text>
</g>
<!-- 6&#45;K4jDdU_K&#45;LIiDt6mFF&#45;&gt;bKLzQwbYWEDEj0_YKyG_ -->
<g id="edge6" class="edge">
<title>6-K4jDdU_K-LIiDt6mFF-&gt;bKLzQwbYWEDEj0_YKyG_</title>
<path fill="none" stroke="black" d="M790.5,-1379.62C744.45,-1361.69 680.86,-1336.92 625.87,-1315.49"/>
<polygon fill="black" stroke="black" points="627.35,-1312.31 616.76,-1311.95 624.81,-1318.84 627.35,-1312.31"/>
<text text-anchor="middle" x="719.71" y="-1333.16" font-family="Times,serif" font-size="14.00">inputs</text>
</g>
<!-- bKLzQwbYWEDEj0_YKyG_&#45;&gt;ALg5azufraPV4kd8TVQ_ -->
<g id="edge8" class="edge">
<title>bKLzQwbYWEDEj0_YKyG_-&gt;ALg5azufraPV4kd8TVQ_</title>
<path fill="none" stroke="black" d="M430.63,-1227.33C400.48,-1211.75 367.02,-1194.45 340.42,-1180.7"/>
<polygon fill="black" stroke="black" points="342.05,-1177.6 331.56,-1176.12 338.83,-1183.82 342.05,-1177.6"/>
<text text-anchor="middle" x="399.76" y="-1197.16" font-family="Times,serif" font-size="14.00">of</text>
</g>
<!-- nFuPg5XMmzHM&#45;NjdgY7r -->
<g id="node10" class="node">
<title>nFuPg5XMmzHM-NjdgY7r</title>
<polygon fill="none" stroke="black" points="379.11,-1042.2 206.89,-1042.2 202.89,-1038.2 202.89,-1000.6 375.11,-1000.6 379.11,-1004.6 379.11,-1042.2"/>
<polyline fill="none" stroke="black" points="375.11,-1038.2 202.89,-1038.2"/>
<polyline fill="none" stroke="black" points="375.11,-1038.2 375.11,-1000.6"/>
<polyline fill="none" stroke="black" points="375.11,-1038.2 379.11,-1042.2"/>
<text text-anchor="middle" x="291" y="-1025.6" font-family="Times,serif" font-size="14.00">receipt</text>
<text text-anchor="middle" x="291" y="-1008.8" font-family="Times,serif" font-size="14.00">nFuPg5XMmzHM-NjdgY7r</text>
</g>
<!-- ALg5azufraPV4kd8TVQ_&#45;&gt;nFuPg5XMmzHM&#45;NjdgY7r -->
<g id="edge10" class="edge">
<title>ALg5azufraPV4kd8TVQ_-&gt;nFuPg5XMmzHM-NjdgY7r</title>
<path fill="none" stroke="black" d="M291,-1133.01C291,-1111.84 291,-1078.24 291,-1053.62"/>
<polygon fill="black" stroke="black" points="294.5,-1053.87 291,-1043.87 287.5,-1053.87 294.5,-1053.87"/>
<text text-anchor="middle" x="312.38" y="-1102.76" font-family="Times,serif" font-size="14.00">transfer</text>
</g>
<!-- Itr1JamT3E&#45;ChIi8kiNm -->
<g id="node12" class="node">
<title>Itr1JamT3E-ChIi8kiNm</title>
<polygon fill="none" stroke="black" points="491.66,-932.24 340.34,-932.24 340.34,-890.64 491.66,-890.64 491.66,-932.24"/>
<text text-anchor="middle" x="416" y="-915.64" font-family="Times,serif" font-size="14.00">transfer</text>
<text text-anchor="middle" x="416" y="-898.84" font-family="Times,serif" font-size="14.00">Itr1JamT3E-ChIi8kiNm</text>
</g>
<!-- nFuPg5XMmzHM&#45;NjdgY7r&#45;&gt;Itr1JamT3E&#45;ChIi8kiNm -->
<g id="edge11" class="edge">
<title>nFuPg5XMmzHM-NjdgY7r-&gt;Itr1JamT3E-ChIi8kiNm</title>
<path fill="none" stroke="black" d="M314.22,-1000.35C333.95,-983.3 362.47,-958.67 384.3,-939.81"/>
<polygon fill="black" stroke="black" points="386.48,-942.56 391.76,-933.37 381.9,-937.26 386.48,-942.56"/>
<text text-anchor="middle" x="377.83" y="-954.44" font-family="Times,serif" font-size="14.00">of</text>
</g>
<!-- 13DLLkBusljHkqAY9FtU -->
<g id="node11" class="node">
<title>13DLLkBusljHkqAY9FtU</title>
<polygon fill="none" stroke="black" points="397.13,-1010.16 543,-985.04 688.87,-1010.16 688.74,-1050.81 397.26,-1050.81 397.13,-1010.16"/>
<text text-anchor="middle" x="543" y="-1025.6" font-family="Times,serif" font-size="14.00">permission</text>
<text text-anchor="middle" x="543" y="-1008.8" font-family="Times,serif" font-size="14.00">13DLLkBusljHkqAY9FtU</text>
</g>
<!-- 13DLLkBusljHkqAY9FtU&#45;&gt;Itr1JamT3E&#45;ChIi8kiNm -->
<g id="edge12" class="edge">
<title>13DLLkBusljHkqAY9FtU-&gt;Itr1JamT3E-ChIi8kiNm</title>
<path fill="none" stroke="black" d="M507.96,-990.61C489.28,-974.74 466.47,-955.34 448.23,-939.84"/>
<polygon fill="black" stroke="black" points="450.73,-937.37 440.84,-933.56 446.19,-942.7 450.73,-937.37"/>
<text text-anchor="middle" x="512.94" y="-954.44" font-family="Times,serif" font-size="14.00">permissions</text>
</g>
<!-- R&#45;zog06CnABARfVh0sUY -->
<g id="node13" class="node">
<title>R-zog06CnABARfVh0sUY</title>
<polygon fill="none" stroke="black" points="502.94,-799.48 333.06,-799.48 329.06,-795.48 329.06,-757.88 498.94,-757.88 502.94,-761.88 502.94,-799.48"/>
<polyline fill="none" stroke="black" points="498.94,-795.48 329.06,-795.48"/>
<polyline fill="none" stroke="black" points="498.94,-795.48 498.94,-757.88"/>
<polyline fill="none" stroke="black" points="498.94,-795.48 502.94,-799.48"/>
<text text-anchor="middle" x="416" y="-782.88" font-family="Times,serif" font-size="14.00">receipt</text>
<text text-anchor="middle" x="416" y="-766.08" font-family="Times,serif" font-size="14.00">R-zog06CnABARfVh0sUY</text>
</g>
<!-- Itr1JamT3E&#45;ChIi8kiNm&#45;&gt;R&#45;zog06CnABARfVh0sUY -->
<g id="edge13" class="edge">
<title>Itr1JamT3E-ChIi8kiNm-&gt;R-zog06CnABARfVh0sUY</title>
<path fill="none" stroke="black" d="M416,-890.29C416,-869.12 416,-835.52 416,-810.9"/>
<polygon fill="black" stroke="black" points="419.5,-811.15 416,-801.15 412.5,-811.15 419.5,-811.15"/>
<text text-anchor="middle" x="437.38" y="-860.04" font-family="Times,serif" font-size="14.00">transfer</text>
</g>
<!-- GGUY7ZchprIN77bJlBgx -->
<g id="node15" class="node">
<title>GGUY7ZchprIN77bJlBgx</title>
<polygon fill="none" stroke="black" points="671.39,-689.52 398.74,-689.52 328.61,-606.32 601.26,-606.32 671.39,-689.52"/>
<text text-anchor="middle" x="500" y="-652.12" font-family="Times,serif" font-size="14.00">process</text>
<text text-anchor="middle" x="500" y="-635.32" font-family="Times,serif" font-size="14.00">GGUY7ZchprIN77bJlBgx</text>
</g>
<!-- R&#45;zog06CnABARfVh0sUY&#45;&gt;GGUY7ZchprIN77bJlBgx -->
<g id="edge14" class="edge">
<title>R-zog06CnABARfVh0sUY-&gt;GGUY7ZchprIN77bJlBgx</title>
<path fill="none" stroke="black" d="M429.12,-757.56C439.28,-741.99 453.81,-719.73 467.07,-699.4"/>
<polygon fill="black" stroke="black" points="469.89,-701.48 472.42,-691.19 464.03,-697.66 469.89,-701.48"/>
<text text-anchor="middle" x="477.63" y="-711.72" font-family="Times,serif" font-size="14.00">inputs</text>
</g>
<!-- 6lQtawqESnh2r1VT9iiZ -->
<g id="node14" class="node">
<title>6lQtawqESnh2r1VT9iiZ</title>
<polygon fill="none" stroke="black" points="521.34,-767.44 657,-742.32 792.66,-767.44 792.53,-808.09 521.47,-808.09 521.34,-767.44"/>
<text text-anchor="middle" x="657" y="-782.88" font-family="Times,serif" font-size="14.00">permission</text>
<text text-anchor="middle" x="657" y="-766.08" font-family="Times,serif" font-size="14.00">6lQtawqESnh2r1VT9iiZ</text>
</g>
<!-- 6lQtawqESnh2r1VT9iiZ&#45;&gt;GGUY7ZchprIN77bJlBgx -->
<g id="edge15" class="edge">
<title>6lQtawqESnh2r1VT9iiZ-&gt;GGUY7ZchprIN77bJlBgx</title>
<path fill="none" stroke="black" d="M621.37,-748.46C602.93,-733.33 579.93,-714.47 558.93,-697.25"/>
<polygon fill="black" stroke="black" points="561.19,-694.57 551.24,-690.94 556.75,-699.99 561.19,-694.57"/>
<text text-anchor="middle" x="621.34" y="-711.72" font-family="Times,serif" font-size="14.00">permissions</text>
</g>
<!-- imVy2pnZxaNBO4tWbdTP -->
<g id="node16" class="node">
<title>imVy2pnZxaNBO4tWbdTP</title>
<polygon fill="none" stroke="black" points="793.33,-553.52 618.67,-553.52 618.67,-511.92 793.33,-511.92 793.33,-553.52"/>
<text text-anchor="middle" x="706" y="-536.92" font-family="Times,serif" font-size="14.00">transfer</text>
<text text-anchor="middle" x="706" y="-520.12" font-family="Times,serif" font-size="14.00">imVy2pnZxaNBO4tWbdTP</text>
</g>
<!-- 6lQtawqESnh2r1VT9iiZ&#45;&gt;imVy2pnZxaNBO4tWbdTP -->
<g id="edge17" class="edge">
<title>6lQtawqESnh2r1VT9iiZ-&gt;imVy2pnZxaNBO4tWbdTP</title>
<path fill="none" stroke="black" d="M666.56,-743.94C671,-727.59 676.14,-707.62 680,-689.52 689.14,-646.71 696.99,-596.72 701.6,-565.14"/>
<polygon fill="black" stroke="black" points="705.03,-565.89 702.99,-555.49 698.1,-564.89 705.03,-565.89"/>
<text text-anchor="middle" x="728.57" y="-643.72" font-family="Times,serif" font-size="14.00">permissions</text>
</g>
<!-- GGUY7ZchprIN77bJlBgx&#45;&gt;imVy2pnZxaNBO4tWbdTP -->
<g id="edge16" class="edge">
<title>GGUY7ZchprIN77bJlBgx-&gt;imVy2pnZxaNBO4tWbdTP</title>
<path fill="none" stroke="black" d="M574.66,-605.89C602.9,-590.38 634.21,-573.17 659.18,-559.45"/>
<polygon fill="black" stroke="black" points="660.71,-562.6 667.79,-554.72 657.34,-556.47 660.71,-562.6"/>
<text text-anchor="middle" x="639.32" y="-575.72" font-family="Times,serif" font-size="14.00">of</text>
</g>
<!-- 5LkiQjOz0Z6ENvPASYlZ -->
<g id="node20" class="node">
<title>5LkiQjOz0Z6ENvPASYlZ</title>
<polygon fill="none" stroke="black" points="855.61,-420.76 690.39,-420.76 686.39,-416.76 686.39,-379.16 851.61,-379.16 855.61,-383.16 855.61,-420.76"/>
<polyline fill="none" stroke="black" points="851.61,-416.76 686.39,-416.76"/>
<polyline fill="none" stroke="black" points="851.61,-416.76 851.61,-379.16"/>
<polyline fill="none" stroke="black" points="851.61,-416.76 855.61,-420.76"/>
<text text-anchor="middle" x="771" y="-404.16" font-family="Times,serif" font-size="14.00">receipt</text>
<text text-anchor="middle" x="771" y="-387.36" font-family="Times,serif" font-size="14.00">5LkiQjOz0Z6ENvPASYlZ</text>
</g>
<!-- imVy2pnZxaNBO4tWbdTP&#45;&gt;5LkiQjOz0Z6ENvPASYlZ -->
<g id="edge21" class="edge">
<title>imVy2pnZxaNBO4tWbdTP-&gt;5LkiQjOz0Z6ENvPASYlZ</title>
<path fill="none" stroke="black" d="M716.01,-511.57C726.68,-490.11 743.7,-455.88 755.98,-431.18"/>
<polygon fill="black" stroke="black" points="759.09,-432.78 760.41,-422.27 752.82,-429.66 759.09,-432.78"/>
<text text-anchor="middle" x="754.05" y="-481.32" font-family="Times,serif" font-size="14.00">transfer</text>
</g>
<!-- CPFay2GfLm&#45;mB5Dei0R6 -->
<g id="node17" class="node">
<title>CPFay2GfLm-mB5Dei0R6</title>
<polygon fill="none" stroke="black" points="911.73,-767.44 1061,-742.32 1210.27,-767.44 1210.13,-808.09 911.87,-808.09 911.73,-767.44"/>
<text text-anchor="middle" x="1061" y="-782.88" font-family="Times,serif" font-size="14.00">permission</text>
<text text-anchor="middle" x="1061" y="-766.08" font-family="Times,serif" font-size="14.00">CPFay2GfLm-mB5Dei0R6</text>
</g>
<!-- _uITAex6O9oCTBQweMaS -->
<g id="node18" class="node">
<title>_uITAex6O9oCTBQweMaS</title>
<polygon fill="none" stroke="black" points="995,-689.52 817.24,-647.92 995,-606.32 1172.76,-647.92 995,-689.52"/>
<text text-anchor="middle" x="995" y="-652.12" font-family="Times,serif" font-size="14.00">origin</text>
<text text-anchor="middle" x="995" y="-635.32" font-family="Times,serif" font-size="14.00">_uITAex6O9oCTBQweMaS</text>
</g>
<!-- CPFay2GfLm&#45;mB5Dei0R6&#45;&gt;_uITAex6O9oCTBQweMaS -->
<g id="edge18" class="edge">
<title>CPFay2GfLm-mB5Dei0R6-&gt;_uITAex6O9oCTBQweMaS</title>
<path fill="none" stroke="black" d="M1044.17,-744.85C1036.46,-729.8 1027.17,-711.69 1018.76,-695.27"/>
<polygon fill="black" stroke="black" points="1022.02,-693.96 1014.35,-686.66 1015.79,-697.16 1022.02,-693.96"/>
<text text-anchor="middle" x="1065.4" y="-711.72" font-family="Times,serif" font-size="14.00">permissions</text>
</g>
<!-- xzYicA63&#45;1QXHpI&#45;kJRF -->
<g id="node19" class="node">
<title>xzYicA63-1QXHpI-kJRF</title>
<polygon fill="none" stroke="black" points="1075.71,-553.52 914.29,-553.52 914.29,-511.92 1075.71,-511.92 1075.71,-553.52"/>
<text text-anchor="middle" x="995" y="-536.92" font-family="Times,serif" font-size="14.00">transfer</text>
<text text-anchor="middle" x="995" y="-520.12" font-family="Times,serif" font-size="14.00">xzYicA63-1QXHpI-kJRF</text>
</g>
<!-- CPFay2GfLm&#45;mB5Dei0R6&#45;&gt;xzYicA63&#45;1QXHpI&#45;kJRF -->
<g id="edge20" class="edge">
<title>CPFay2GfLm-mB5Dei0R6-&gt;xzYicA63-1QXHpI-kJRF</title>
<path fill="none" stroke="black" d="M1117.72,-751.53C1142.2,-737.01 1168.33,-716.39 1182,-689.52 1198.77,-656.56 1202.89,-636.83 1182,-606.32 1160.34,-574.68 1122.72,-556.82 1086.87,-546.75"/>
<polygon fill="black" stroke="black" points="1087.85,-543.39 1077.29,-544.25 1086.08,-550.16 1087.85,-543.39"/>
<text text-anchor="middle" x="1229.6" y="-643.72" font-family="Times,serif" font-size="14.00">permissions</text>
</g>
<!-- _uITAex6O9oCTBQweMaS&#45;&gt;xzYicA63&#45;1QXHpI&#45;kJRF -->
<g id="edge19" class="edge">
<title>_uITAex6O9oCTBQweMaS-&gt;xzYicA63-1QXHpI-kJRF</title>
<path fill="none" stroke="black" d="M995,-606.05C995,-592.61 995,-577.89 995,-565.26"/>
<polygon fill="black" stroke="black" points="998.5,-565.41 995,-555.41 991.5,-565.41 998.5,-565.41"/>
<text text-anchor="middle" x="1000.83" y="-575.72" font-family="Times,serif" font-size="14.00">of</text>
</g>
<!-- z&#45;eOfis0HbWuk&#45;G0LEdX -->
<g id="node21" class="node">
<title>z-eOfis0HbWuk-G0LEdX</title>
<polygon fill="none" stroke="black" points="1038.26,-420.76 877.74,-420.76 873.74,-416.76 873.74,-379.16 1034.26,-379.16 1038.26,-383.16 1038.26,-420.76"/>
<polyline fill="none" stroke="black" points="1034.26,-416.76 873.74,-416.76"/>
<polyline fill="none" stroke="black" points="1034.26,-416.76 1034.26,-379.16"/>
<polyline fill="none" stroke="black" points="1034.26,-416.76 1038.26,-420.76"/>
<text text-anchor="middle" x="956" y="-404.16" font-family="Times,serif" font-size="14.00">receipt</text>
<text text-anchor="middle" x="956" y="-387.36" font-family="Times,serif" font-size="14.00">z-eOfis0HbWuk-G0LEdX</text>
</g>
<!-- xzYicA63&#45;1QXHpI&#45;kJRF&#45;&gt;z&#45;eOfis0HbWuk&#45;G0LEdX -->
<g id="edge22" class="edge">
<title>xzYicA63-1QXHpI-kJRF-&gt;z-eOfis0HbWuk-G0LEdX</title>
<path fill="none" stroke="black" d="M988.99,-511.57C982.65,-490.3 972.56,-456.49 965.21,-431.85"/>
<polygon fill="black" stroke="black" points="968.6,-430.95 962.38,-422.36 961.89,-432.95 968.6,-430.95"/>
<text text-anchor="middle" x="1004.85" y="-481.32" font-family="Times,serif" font-size="14.00">transfer</text>
</g>
<!-- 11wK9eTpEnYiiMmjKz_F -->
<g id="node23" class="node">
<title>11wK9eTpEnYiiMmjKz_F</title>
<polygon fill="none" stroke="black" points="1145.04,-310.8 863.41,-310.8 790.96,-227.6 1072.59,-227.6 1145.04,-310.8"/>
<text text-anchor="middle" x="968" y="-273.4" font-family="Times,serif" font-size="14.00">process</text>
<text text-anchor="middle" x="968" y="-256.6" font-family="Times,serif" font-size="14.00">11wK9eTpEnYiiMmjKz_F</text>
</g>
<!-- 5LkiQjOz0Z6ENvPASYlZ&#45;&gt;11wK9eTpEnYiiMmjKz_F -->
<g id="edge23" class="edge">
<title>5LkiQjOz0Z6ENvPASYlZ-&gt;11wK9eTpEnYiiMmjKz_F</title>
<path fill="none" stroke="black" d="M801.78,-378.84C826.9,-362.43 863.4,-338.57 895.8,-317.39"/>
<polygon fill="black" stroke="black" points="897.54,-320.43 903.99,-312.03 893.71,-314.58 897.54,-320.43"/>
<text text-anchor="middle" x="892.52" y="-333" font-family="Times,serif" font-size="14.00">inputs</text>
</g>
<!-- z&#45;eOfis0HbWuk&#45;G0LEdX&#45;&gt;11wK9eTpEnYiiMmjKz_F -->
<g id="edge24" class="edge">
<title>z-eOfis0HbWuk-G0LEdX-&gt;11wK9eTpEnYiiMmjKz_F</title>
<path fill="none" stroke="black" d="M957.88,-378.84C959.28,-363.76 961.27,-342.41 963.11,-322.62"/>
<polygon fill="black" stroke="black" points="966.59,-322.99 964.04,-312.71 959.63,-322.34 966.59,-322.99"/>
<text text-anchor="middle" x="979.47" y="-333" font-family="Times,serif" font-size="14.00">inputs</text>
</g>
<!-- jo9hdTgp7FWJT6tNMO5J -->
<g id="node22" class="node">
<title>jo9hdTgp7FWJT6tNMO5J</title>
<polygon fill="none" stroke="black" points="1055.77,-388.72 1203,-363.6 1350.23,-388.72 1350.09,-429.38 1055.91,-429.38 1055.77,-388.72"/>
<text text-anchor="middle" x="1203" y="-404.16" font-family="Times,serif" font-size="14.00">permission</text>
<text text-anchor="middle" x="1203" y="-387.36" font-family="Times,serif" font-size="14.00">jo9hdTgp7FWJT6tNMO5J</text>
</g>
<!-- jo9hdTgp7FWJT6tNMO5J&#45;&gt;11wK9eTpEnYiiMmjKz_F -->
<g id="edge25" class="edge">
<title>jo9hdTgp7FWJT6tNMO5J-&gt;11wK9eTpEnYiiMmjKz_F</title>
<path fill="none" stroke="black" d="M1153.16,-371.65C1123.98,-355.66 1086.34,-335.04 1052.64,-316.57"/>
<polygon fill="black" stroke="black" points="1054.56,-313.64 1044.11,-311.9 1051.19,-319.77 1054.56,-313.64"/>
<text text-anchor="middle" x="1133.01" y="-333" font-family="Times,serif" font-size="14.00">permissions</text>
</g>
<!-- YZT7ZjBEqRZ7eiTtU6Ig -->
<g id="node24" class="node">
<title>YZT7ZjBEqRZ7eiTtU6Ig</title>
<polygon fill="none" stroke="black" points="1221.88,-174.8 1058.12,-174.8 1058.12,-133.2 1221.88,-133.2 1221.88,-174.8"/>
<text text-anchor="middle" x="1140" y="-158.2" font-family="Times,serif" font-size="14.00">transfer</text>
<text text-anchor="middle" x="1140" y="-141.4" font-family="Times,serif" font-size="14.00">YZT7ZjBEqRZ7eiTtU6Ig</text>
</g>
<!-- jo9hdTgp7FWJT6tNMO5J&#45;&gt;YZT7ZjBEqRZ7eiTtU6Ig -->
<g id="edge27" class="edge">
<title>jo9hdTgp7FWJT6tNMO5J-&gt;YZT7ZjBEqRZ7eiTtU6Ig</title>
<path fill="none" stroke="black" d="M1194.17,-364.78C1181.9,-317.25 1159.86,-231.89 1148.02,-186.07"/>
<polygon fill="black" stroke="black" points="1151.45,-185.33 1145.56,-176.52 1144.67,-187.08 1151.45,-185.33"/>
<text text-anchor="middle" x="1213.26" y="-265" font-family="Times,serif" font-size="14.00">permissions</text>
</g>
<!-- 11wK9eTpEnYiiMmjKz_F&#45;&gt;YZT7ZjBEqRZ7eiTtU6Ig -->
<g id="edge26" class="edge">
<title>11wK9eTpEnYiiMmjKz_F-&gt;YZT7ZjBEqRZ7eiTtU6Ig</title>
<path fill="none" stroke="black" d="M1030.1,-227.33C1053.36,-212.02 1079.15,-195.05 1099.9,-181.39"/>
<polygon fill="black" stroke="black" points="1101.66,-184.43 1108.08,-176 1097.81,-178.58 1101.66,-184.43"/>
<text text-anchor="middle" x="1085.29" y="-197" font-family="Times,serif" font-size="14.00">of</text>
</g>
<!-- 1dBO8R0q6oZ_aFn5Uz&#45;K -->
<g id="node25" class="node">
<title>1dBO8R0q6oZ_aFn5Uz-K</title>
<polygon fill="none" stroke="black" points="1224.22,-57.6 1059.78,-57.6 1055.78,-53.6 1055.78,-16 1220.22,-16 1224.22,-20 1224.22,-57.6"/>
<polyline fill="none" stroke="black" points="1220.22,-53.6 1055.78,-53.6"/>
<polyline fill="none" stroke="black" points="1220.22,-53.6 1220.22,-16"/>
<polyline fill="none" stroke="black" points="1220.22,-53.6 1224.22,-57.6"/>
<text text-anchor="middle" x="1140" y="-41" font-family="Times,serif" font-size="14.00">receipt</text>
<text text-anchor="middle" x="1140" y="-24.2" font-family="Times,serif" font-size="14.00">1dBO8R0q6oZ_aFn5Uz-K</text>
</g>
<!-- YZT7ZjBEqRZ7eiTtU6Ig&#45;&gt;1dBO8R0q6oZ_aFn5Uz&#45;K -->
<g id="edge28" class="edge">
<title>YZT7ZjBEqRZ7eiTtU6Ig-&gt;1dBO8R0q6oZ_aFn5Uz-K</title>
<path fill="none" stroke="black" d="M1140,-132.93C1140,-115.45 1140,-89.79 1140,-69.52"/>
<polygon fill="black" stroke="black" points="1143.5,-69.54 1140,-59.54 1136.5,-69.54 1143.5,-69.54"/>
<text text-anchor="middle" x="1161.38" y="-102.6" font-family="Times,serif" font-size="14.00">transfer</text>
</g>
</g>
</svg>