<svg xmlns="http://www.w3.org/2000/svg" xmlns:xlink="http://www.w3.org/1999/xlink" width="1574pt" height="1808pt" viewBox="0.00 0.00 1574.00 1808.12">
<g id="graph0" class="graph" transform="scale(1 1) rotate(0) translate(4 1804.12)">
<title>ProvenanceRecord</title>
<polygon fill="white" stroke="none" points="-4,4 -4,-1804.12 1570,-1804.12 1570,4 -4,4"/>
<g id="clust1" class="cluster">
<title>cluster_0</title>
<polygon fill="none" stroke="black" stroke-dasharray="5,2" points="889,-1573.72 889,-1792.12 1558,-1792.12 1558,-1573.72 889,-1573.72"/>
<text text-anchor="middle" x="1223.5" y="-1775.52" font-family="Times,serif" font-size="14.00">Industrial Metering Company</text>
</g>
<g id="clust2" class="cluster">
<title>cluster_1</title>
<polygon fill="none" stroke="black" stroke-dasharray="5,2" points="8,-1184.52 8,-1538.92 1238,-1538.92 1238,-1184.52 8,-1184.52"/>
<text text-anchor="middle" x="623" y="-1522.32" font-family="Times,serif" font-size="14.00">Nitrogen Fertiliser Products</text>
</g>
<g id="clust3" class="cluster">
<title>cluster_2</title>
<polygon fill="none" stroke="black" stroke-dasharray="5,2" points="185,-941.8 185,-1149.72 704,-1149.72 704,-941.8 185,-941.8"/>
<text text-anchor="middle" x="444.5" y="-1133.12" font-family="Times,serif" font-size="14.00">Agricultural Wholesale Supplies</text>
</g>
<g id="clust4" class="cluster">
<title>cluster_3</title>
<polygon fill="none" stroke="black" stroke-dasharray="5,2" points="326,-524.72 326,-907 834,-907 834,-524.72 326,-524.72"/>
<text text-anchor="middle" x="580" y="-890.4" font-family="Times,serif" font-size="14.00">Precise Farm Automation Co</text>
</g>
<g id="clust5" class="cluster">
<title>cluster_4</title>
<polygon fill="none" stroke="black" stroke-dasharray="5,2" points="842,-371.16 842,-758.68 1337,-758.68 1337,-371.16 842,-371.16"/>
<text text-anchor="middle" x="1089.5" y="-742.08" font-family="Times,serif" font-size="14.00">Rosemary Accountancy Software</text>
</g>
<g id="clust6" class="cluster">
<title>cluster_5</title>
<polygon fill="none" stroke="black" stroke-dasharray="5,2" points="330,-125.2 330,-469.12 828,-469.12 828,-125.2 330,-125.2"/>
<text text-anchor="middle" x="579" y="-452.52" font-family="Times,serif" font-size="14.00">Sustainable Farm Systems</text>
</g>
<g id="clust7" class="cluster">
<title>cluster_6</title>
<polygon fill="none" stroke="black" stroke-dasharray="5,2" points="449,-8 449,-90.4 627,-90.4 627,-8 449,-8"/>
<text text-anchor="middle" x="538" y="-73.8" font-family="Times,serif" font-size="14.00">Green Bank of London</text>
</g>
<!-- vN8Q9X1VcG0vlFurIqxV -->
<g id="node1" class="node">
<title>vN8Q9X1VcG0vlFurIqxV</title>
<polygon fill="none" stroke="black" points="897.15,-1706.48 1043,-1681.36 1188.85,-1706.48 1188.72,-1747.13 897.28,-1747.13 897.15,-1706.48"/>
<text text-anchor="middle" x="1043" y="-1721.92" font-family="Times,serif" font-size="14.00">permission</text>
<text text-anchor="middle" x="1043" y="-1705.12" font-family="Times,serif" font-size="14.00">vN8Q9X1VcG0vlFurIqxV</text>
</g>
<!-- Skjqpu4XZ_ACjbnS8VOD -->
<g id="node3" class="node">
<title>Skjqpu4XZ_ACjbnS8VOD</title>
<polygon fill="none" stroke="black" points="1234.4,-1623.32 1063.6,-1623.32 1063.6,-1581.72 1234.4,-1581.72 1234.4,-1623.32"/>
<text text-anchor="middle" x="1149" y="-1606.72" font-family="Times,serif" font-size="14.00">transfer</text>
<text text-anchor="middle" x="1149" y="-1589.92" font-family="Times,serif" font-size="14.00">Skjqpu4XZ_ACjbnS8VOD</text>
</g>
<!-- vN8Q9X1VcG0vlFurIqxV&#45;&gt;Skjqpu4XZ_ACjbnS8VOD -->
<g id="edge2" class="edge">
<title>vN8Q9X1VcG0vlFurIqxV-&gt;Skjqpu4XZ_ACjbnS8VOD</title>
<path fill="none" stroke="black" d="M1071.69,-1686.08C1087.45,-1669.25 1106.89,-1648.49 1122.33,-1632"/>
<polygon fill="black" stroke="black" points="1124.68,-1634.61 1128.96,-1624.92 1119.57,-1629.83 1124.68,-1634.61"/>
<text text-anchor="middle" x="1145.13" y="-1645.52" font-family="Times,serif" font-size="14.00">permissions</text>
</g>
<!-- YuD_1TBsF3z_10X0o8sM -->
<g id="node2" class="node">
<title>YuD_1TBsF3z_10X0o8sM</title>
<polygon fill="none" stroke="black" points="1378,-1759.32 1206.43,-1717.72 1378,-1676.12 1549.57,-1717.72 1378,-1759.32"/>
<text text-anchor="middle" x="1378" y="-1721.92" font-family="Times,serif" font-size="14.00">origin</text>
<text text-anchor="middle" x="1378" y="-1705.12" font-family="Times,serif" font-size="14.00">YuD_1TBsF3z_10X0o8sM</text>
</g>
<!-- YuD_1TBsF3z_10X0o8sM&#45;&gt;Skjqpu4XZ_ACjbnS8VOD -->
<g id="edge1" class="edge">
<title>YuD_1TBsF3z_10X0o8sM-&gt;Skjqpu4XZ_ACjbnS8VOD</title>
<path fill="none" stroke="black" d="M1322.27,-1689.17C1284.88,-1670.69 1236.01,-1646.53 1199.71,-1628.59"/>
<polygon fill="black" stroke="black" points="1201.7,-1625.66 1191.18,-1624.37 1198.59,-1631.94 1201.7,-1625.66"/>
<text text-anchor="middle" x="1262.46" y="-1645.52" font-family="Times,serif" font-size="14.00">of</text>
</g>
<!-- qdcsxXNtOaxsfzcB1HoD -->
<g id="node4" class="node">
<title>qdcsxXNtOaxsfzcB1HoD</title>
<polygon fill="none" stroke="black" points="1230.1,-1485.32 1071.9,-1485.32 1067.9,-1481.32 1067.9,-1443.72 1226.1,-1443.72 1230.1,-1447.72 1230.1,-1485.32"/>
<polyline fill="none" stroke="black" points="1226.1,-1481.32 1067.9,-1481.32"/>
<polyline fill="none" stroke="black" points="1226.1,-1481.32 1226.1,-1443.72"/>
<polyline fill="none" stroke="black" points="1226.1,-1481.32 1230.1,-1485.32"/>
<text text-anchor="middle" x="1149" y="-1468.72" font-family="Times,serif" font-size="14.00">receipt</text>
<text text-anchor="middle" x="1149" y="-1451.92" font-family="Times,serif" font-size="14.00">qdcsxXNtOaxsfzcB1HoD</text>
</g>
<!-- Skjqpu4XZ_ACjbnS8VOD&#45;&gt;qdcsxXNtOaxsfzcB1HoD -->
<g id="edge3" class="edge">
<title>Skjqpu4XZ_ACjbnS8VOD-&gt;qdcsxXNtOaxsfzcB1HoD</title>
<path fill="none" stroke="black" d="M1149,-1581.45C1149,-1559.25 1149,-1523.19 1149,-1497.18"/>
<polygon fill="black" stroke="black" points="1152.5,-1497.18 1149,-1487.18 1145.5,-1497.18 1152.5,-1497.18"/>
<text text-anchor="middle" x="1170.38" y="-1551.12" font-family="Times,serif" font-size="14.00">transfer</text>
</g>
<!-- PeCXMEBRUtVc7yjRDeJW -->
<g id="node8" class="node">
<title>PeCXMEBRUtVc7yjRDeJW</title>
<polygon fill="none" stroke="black" points="688.34,-1370.12 388.73,-1370.12 311.66,-1286.92 611.27,-1286.92 688.34,-1370.12"/>
<text text-anchor="middle" x="500" y="-1332.72" font-family="Times,serif" font-size="14.00">process</text>
<text text-anchor="middle" x="500" y="-1315.92" font-family="Times,serif" font-size="14.00">PeCXMEBRUtVc7yjRDeJW</text>
</g>
<!-- qdcsxXNtOaxsfzcB1HoD&#45;&gt;PeCXMEBRUtVc7yjRDeJW -->
<g id="edge4" class="edge">
<title>qdcsxXNtOaxsfzcB1HoD-&gt;PeCXMEBRUtVc7yjRDeJW</title>
<path fill="none" stroke="black" d="M1109.98,-1443.26C1094.46,-1435.91 1076.22,-1428.15 1059,-1422.92 934.29,-1385.07 788.99,-1361.38 677.79,-1347.34"/>
<polygon fill="black" stroke="black" points="678.31,-1343.87 667.96,-1346.11 677.45,-1350.82 678.31,-1343.87"/>
<text text-anchor="middle" x="1001.89" y="-1392.32" font-family="Times,serif" font-size="14.00">inputs</text>
</g>
<!-- cpUXbig1z&#45;wlAFobCeBG -->
<g id="node5" class="node">
<title>cpUXbig1z-wlAFobCeBG</title>
<polygon fill="none" stroke="black" points="15.83,-1453.28 161,-1428.16 306.17,-1453.28 306.04,-1493.93 15.96,-1493.93 15.83,-1453.28"/>
<text text-anchor="middle" x="161" y="-1468.72" font-family="Times,serif" font-size="14.00">permission</text>
<text text-anchor="middle" x="161" y="-1451.92" font-family="Times,serif" font-size="14.00">cpUXbig1z-wlAFobCeBG</text>
</g>
<!-- cpUXbig1z&#45;wlAFobCeBG&#45;&gt;PeCXMEBRUtVc7yjRDeJW -->
<g id="edge7" class="edge">
<title>cpUXbig1z-wlAFobCeBG-&gt;PeCXMEBRUtVc7yjRDeJW</title>
<path fill="none" stroke="black" d="M223.97,-1438.63C269.21,-1420.75 331.47,-1396.14 385.41,-1374.81"/>
<polygon fill="black" stroke="black" points="386.66,-1378.08 394.67,-1371.15 384.08,-1371.57 386.66,-1378.08"/>
<text text-anchor="middle" x="384.24" y="-1392.32" font-family="Times,serif" font-size="14.00">permissions</text>
</g>
<!-- Kr1nkjTQgTzLI6VVLju5 -->
<g id="node9" class="node">
<title>Kr1nkjTQgTzLI6VVLju5</title>
<polygon fill="none" stroke="black" points="365.48,-1234.12 202.52,-1234.12 202.52,-1192.52 365.48,-1192.52 365.48,-1234.12"/>
<text text-anchor="middle" x="284" y="-1217.52" font-family="Times,serif" font-size="14.00">transfer</text>
<text text-anchor="middle" x="284" y="-1200.72" font-family="Times,serif" font-size="14.00">Kr1nkjTQgTzLI6VVLju5</text>
</g>
<!-- cpUXbig1z&#45;wlAFobCeBG&#45;&gt;Kr1nkjTQgTzLI6VVLju5 -->
<g id="edge9" class="edge">
<title>cpUXbig1z-wlAFobCeBG-&gt;Kr1nkjTQgTzLI6VVLju5</title>
<path fill="none" stroke="black" d="M173.24,-1429.81C186.85,-1393.64 210.35,-1334.91 236.11,-1286.92 244.02,-1272.18 254.05,-1256.61 262.89,-1243.68"/>
<polygon fill="black" stroke="black" points="265.66,-1245.82 268.49,-1235.61 259.91,-1241.82 265.66,-1245.82"/>
<text text-anchor="middle" x="269.56" y="-1324.32" font-family="Times,serif" font-size="14.00">permissions</text>
</g>
<!-- qzGBW2UEdE3Sh4sGaESz -->
<g id="node6" class="node">
<title>qzGBW2UEdE3Sh4sGaESz</title>
<polygon fill="none" stroke="black" points="500,-1506.12 323.8,-1464.52 500,-1422.92 676.2,-1464.52 500,-1506.12"/>
<text text-anchor="middle" x="500" y="-1468.72" font-family="Times,serif" font-size="14.00">origin</text>
<text text-anchor="middle" x="500" y="-1451.92" font-family="Times,serif" font-size="14.00">qzGBW2UEdE3Sh4sGaESz</text>
</g>
<!-- qzGBW2UEdE3Sh4sGaESz&#45;&gt;PeCXMEBRUtVc7yjRDeJW -->
<g id="edge5" class="edge">
<title>qzGBW2UEdE3Sh4sGaESz-&gt;PeCXMEBRUtVc7yjRDeJW</title>
<path fill="none" stroke="black" d="M500,-1422.59C500,-1409.6 500,-1395.06 500,-1381.41"/>
<polygon fill="black" stroke="black" points="503.5,-1381.71 500,-1371.71 496.5,-1381.71 503.5,-1381.71"/>
<text text-anchor="middle" x="517.11" y="-1392.32" font-family="Times,serif" font-size="14.00">inputs</text>
</g>
<!-- TxryddBFwDAKPBXPiNo6 -->
<g id="node7" class="node">
<title>TxryddBFwDAKPBXPiNo6</title>
<polygon fill="none" stroke="black" points="872,-1506.12 694.2,-1464.52 872,-1422.92 1049.8,-1464.52 872,-1506.12"/>
<text text-anchor="middle" x="872" y="-1468.72" font-family="Times,serif" font-size="14.00">origin</text>
<text text-anchor="middle" x="872" y="-1451.92" font-family="Times,serif" font-size="14.00">TxryddBFwDAKPBXPiNo6</text>
</g>
<!-- TxryddBFwDAKPBXPiNo6&#45;&gt;PeCXMEBRUtVc7yjRDeJW -->
<g id="edge6" class="edge">
<title>TxryddBFwDAKPBXPiNo6-&gt;PeCXMEBRUtVc7yjRDeJW</title>
<path fill="none" stroke="black" d="M802.9,-1438.63C752.95,-1420.63 684.09,-1395.83 624.64,-1374.41"/>
<polygon fill="black" stroke="black" points="626.06,-1371.21 615.46,-1371.11 623.68,-1377.79 626.06,-1371.21"/>
<text text-anchor="middle" x="725.39" y="-1392.32" font-family="Times,serif" font-size="14.00">inputs</text>
</g>
<!-- PeCXMEBRUtVc7yjRDeJW&#45;&gt;Kr1nkjTQgTzLI6VVLju5 -->
<g id="edge8" class="edge">
<title>PeCXMEBRUtVc7yjRDeJW-&gt;Kr1nkjTQgTzLI6VVLju5</title>
<path fill="none" stroke="black" d="M421.71,-1286.49C391.98,-1270.91 358.98,-1253.61 332.74,-1239.86"/>
<polygon fill="black" stroke="black" points="334.5,-1236.83 324.01,-1235.29 331.25,-1243.03 334.5,-1236.83"/>
<text text-anchor="middle" x="391.35" y="-1256.32" font-family="Times,serif" font-size="14.00">of</text>
</g>
<!-- 5yN24zBBSgRAymX00mKz -->
<g id="node10" class="node">
<title>5yN24zBBSgRAymX00mKz</title>
<polygon fill="none" stroke="black" points="375.22,-1101.36 196.78,-1101.36 192.78,-1097.36 192.78,-1059.76 371.22,-1059.76 375.22,-1063.76 375.22,-1101.36"/>
<polyline fill="none" stroke="black" points="371.22,-1097.36 192.78,-1097.36"/>
<polyline fill="none" stroke="black" points="371.22,-1097.36 371.22,-1059.76"/>
<polyline fill="none" stroke="black" points="371.22,-1097.36 375.22,-1101.36"/>
<text text-anchor="middle" x="284" y="-1084.76" font-family="Times,serif" font-size="14.00">receipt</text>
<text text-anchor="middle" x="284" y="-1067.96" font-family="Times,serif" font-size="14.00">5yN24zBBSgRAymX00mKz</text>
</g>
<!-- Kr1nkjTQgTzLI6VVLju5&#45;&gt;5yN24zBBSgRAymX00mKz -->
<g id="edge10" class="edge">
<title>Kr1nkjTQgTzLI6VVLju5-&gt;5yN24zBBSgRAymX00mKz</title>
<path fill="none" stroke="black" d="M284,-1192.17C284,-1171 284,-1137.4 284,-1112.78"/>
<polygon fill="black" stroke="black" points="287.5,-1113.02 284,-1103.02 280.5,-1113.02 287.5,-1113.02"/>
<text text-anchor="middle" x="305.38" y="-1161.92" font-family="Times,serif" font-size="14.00">transfer</text>
</g>
<!-- 9LwAegVSYnygQOSXbJas -->
<g id="node12" class="node">
<title>9LwAegVSYnygQOSXbJas</title>
<polygon fill="none" stroke="black" points="502.11,-991.4 325.89,-991.4 325.89,-949.8 502.11,-949.8 502.11,-991.4"/>
<text text-anchor="middle" x="414" y="-974.8" font-family="Times,serif" font-size="14.00">transfer</text>
<text text-anchor="middle" x="414" y="-958" font-family="Times,serif" font-size="14.00">9LwAegVSYnygQOSXbJas</text>
</g>
<!-- 5yN24zBBSgRAymX00mKz&#45;&gt;9LwAegVSYnygQOSXbJas -->
<g id="edge11" class="edge">
<title>5yN24zBBSgRAymX00mKz-&gt;9LwAegVSYnygQOSXbJas</title>
<path fill="none" stroke="black" d="M308.15,-1059.51C328.76,-1042.39 358.59,-1017.61 381.34,-998.72"/>
<polygon fill="black" stroke="black" points="383.36,-1001.59 388.82,-992.51 378.89,-996.21 383.36,-1001.59"/>
<text text-anchor="middle" x="374.07" y="-1013.6" font-family="Times,serif" font-size="14.00">of</text>
</g>
<!-- BrmqERAI9FPhFELA3098 -->
<g id="node11" class="node">
<title>BrmqERAI9FPhFELA3098</title>
<polygon fill="none" stroke="black" points="393.68,-1069.32 545,-1044.2 696.32,-1069.32 696.17,-1109.97 393.83,-1109.97 393.68,-1069.32"/>
<text text-anchor="middle" x="545" y="-1084.76" font-family="Times,serif" font-size="14.00">permission</text>
<text text-anchor="middle" x="545" y="-1067.96" font-family="Times,serif" font-size="14.00">BrmqERAI9FPhFELA3098</text>
</g>
<!-- BrmqERAI9FPhFELA3098&#45;&gt;9LwAegVSYnygQOSXbJas -->
<g id="edge12" class="edge">
<title>BrmqERAI9FPhFELA3098-&gt;9LwAegVSYnygQOSXbJas</title>
<path fill="none" stroke="black" d="M508.86,-1049.77C489.59,-1033.9 466.06,-1014.5 447.25,-999"/>
<polygon fill="black" stroke="black" points="449.54,-996.36 439.6,-992.7 445.09,-1001.76 449.54,-996.36"/>
<text text-anchor="middle" x="512.94" y="-1013.6" font-family="Times,serif" font-size="14.00">permissions</text>
</g>
<!-- uS6nqg307XFFHnew6jJI -->
<g id="node13" class="node">
<title>uS6nqg307XFFHnew6jJI</title>
<polygon fill="none" stroke="black" points="493.95,-858.64 338.05,-858.64 334.05,-854.64 334.05,-817.04 489.95,-817.04 493.95,-821.04 493.95,-858.64"/>
<polyline fill="none" stroke="black" points="489.95,-854.64 334.05,-854.64"/>
<polyline fill="none" stroke="black" points="489.95,-854.64 489.95,-817.04"/>
<polyline fill="none" stroke="black" points="489.95,-854.64 493.95,-858.64"/>
<text text-anchor="middle" x="414" y="-842.04" font-family="Times,serif" font-size="14.00">receipt</text>
<text text-anchor="middle" x="414" y="-825.24" font-family="Times,serif" font-size="14.00">uS6nqg307XFFHnew6jJI</text>
</g>
<!-- 9LwAegVSYnygQOSXbJas&#45;&gt;uS6nqg307XFFHnew6jJI -->
<g id="edge13" class="edge">
<title>9LwAegVSYnygQOSXbJas-&gt;uS6nqg307XFFHnew6jJI</title>
<path fill="none" stroke="black" d="M414,-949.45C414,-928.28 414,-894.68 414,-870.06"/>
<polygon fill="black" stroke="black" points="417.5,-870.31 414,-860.31 410.5,-870.31 417.5,-870.31"/>
<text text-anchor="middle" x="435.38" y="-919.2" font-family="Times,serif" font-size="14.00">transfer</text>
</g>
<!-- _H6rTifzbFdndHO4IB_z -->
<g id="node15" class="node">
<title>_H6rTifzbFdndHO4IB_z</title>
<polygon fill="none" stroke="black" points="673.13,-731.12 412.04,-731.12 344.87,-647.92 605.96,-647.92 673.13,-731.12"/>
<text text-anchor="middle" x="509" y="-693.72" font-family="Times,serif" font-size="14.00">process</text>
<text text-anchor="middle" x="509" y="-676.92" font-family="Times,serif" font-size="14.00">_H6rTifzbFdndHO4IB_z</text>
</g>
<!-- uS6nqg307XFFHnew6jJI&#45;&gt;_H6rTifzbFdndHO4IB_z -->
<g id="edge14" class="edge">
<title>uS6nqg307XFFHnew6jJI-&gt;_H6rTifzbFdndHO4IB_z</title>
<path fill="none" stroke="black" d="M427.01,-816.8C439.64,-797.35 459.32,-767.04 476.23,-740.98"/>
<polygon fill="black" stroke="black" points="478.99,-743.17 481.5,-732.88 473.12,-739.36 478.99,-743.17"/>
<text text-anchor="middle" x="475.77" y="-770.88" font-family="Times,serif" font-size="14.00">inputs</text>
</g>
<!-- JdmKLBTOAGla8sC37LwZ -->
<g id="node14" class="node">
<title>JdmKLBTOAGla8sC37LwZ</title>
<polygon fill="none" stroke="black" points="512.26,-826.6 669,-801.48 825.74,-826.6 825.59,-867.25 512.41,-867.25 512.26,-826.6"/>
<text text-anchor="middle" x="669" y="-842.04" font-family="Times,serif" font-size="14.00">permission</text>
<text text-anchor="middle" x="669" y="-825.24" font-family="Times,serif" font-size="14.00">JdmKLBTOAGla8sC37LwZ</text>
</g>
<!-- JdmKLBTOAGla8sC37LwZ&#45;&gt;_H6rTifzbFdndHO4IB_z -->
<g id="edge15" class="edge">
<title>JdmKLBTOAGla8sC37LwZ-&gt;_H6rTifzbFdndHO4IB_z</title>
<path fill="none" stroke="black" d="M635.85,-806.52C614.56,-787.05 586.44,-761.34 562.08,-739.06"/>
<polygon fill="black" stroke="black" points="564.5,-736.53 554.76,-732.37 559.78,-741.7 564.5,-736.53"/>
<text text-anchor="middle" x="641.48" y="-770.88" font-family="Times,serif" font-size="14.00">permissions</text>
</g>
<!-- 8VjLUZDggQks0MZeieZa -->
<g id="node16" class="node">
<title>8VjLUZDggQks0MZeieZa</title>
<polygon fill="none" stroke="black" points="793.98,-574.32 624.02,-574.32 624.02,-532.72 793.98,-532.72 793.98,-574.32"/>
<text text-anchor="middle" x="709" y="-557.72" font-family="Times,serif" font-size="14.00">transfer</text>
<text text-anchor="middle" x="709" y="-540.92" font-family="Times,serif" font-size="14.00">8VjLUZDggQks0MZeieZa</text>
</g>
<!-- JdmKLBTOAGla8sC37LwZ&#45;&gt;8VjLUZDggQks0MZeieZa -->
<g id="edge17" class="edge">
<title>JdmKLBTOAGla8sC37LwZ-&gt;8VjLUZDggQks0MZeieZa</title>
<path fill="none" stroke="black" d="M675.79,-802.16C676.92,-795.95 678.04,-789.53 679,-783.48 690.17,-713.27 700.26,-630.47 705.41,-586.21"/>
<polygon fill="black" stroke="black" points="708.88,-586.63 706.55,-576.29 701.93,-585.82 708.88,-586.63"/>
<text text-anchor="middle" x="731.19" y="-685.32" font-family="Times,serif" font-size="14.00">permissions</text>
</g>
<!-- _H6rTifzbFdndHO4IB_z&#45;&gt;8VjLUZDggQks0MZeieZa -->
<g id="edge16" class="edge">
<title>_H6rTifzbFdndHO4IB_z-&gt;8VjLUZDggQks0MZeieZa</title>
<path fill="none" stroke="black" d="M570.09,-647.59C602.36,-625.97 641.03,-600.06 669.37,-581.07"/>
<polygon fill="black" stroke="black" points="671.31,-583.98 677.67,-575.51 667.42,-578.17 671.31,-583.98"/>
<text text-anchor="middle" x="626.81" y="-617.32" font-family="Times,serif" font-size="14.00">of</text>
</g>
<!-- Y4a8JiQpHg5r0QWKlcK_ -->
<g id="node20" class="node">
<title>Y4a8JiQpHg5r0QWKlcK_</title>
<polygon fill="none" stroke="black" points="819.6,-420.76 654.4,-420.76 650.4,-416.76 650.4,-379.16 815.6,-379.16 819.6,-383.16 819.6,-420.76"/>
<polyline fill="none" stroke="black" points="815.6,-416.76 650.4,-416.76"/>
<polyline fill="none" stroke="black" points="815.6,-416.76 815.6,-379.16"/>
<polyline fill="none" stroke="black" points="815.6,-416.76 819.6,-420.76"/>
<text text-anchor="middle" x="735" y="-404.16" font-family="Times,serif" font-size="14.00">receipt</text>
<text text-anchor="middle" x="735" y="-387.36" font-family="Times,serif" font-size="14.00">Y4a8JiQpHg5r0QWKlcK_</text>
</g>
<!-- 8VjLUZDggQks0MZeieZa&#45;&gt;Y4a8JiQpHg5r0QWKlcK_ -->
<g id="edge21" class="edge">
<title>8VjLUZDggQks0MZeieZa-&gt;Y4a8JiQpHg5r0QWKlcK_</title>
<path fill="none" stroke="black" d="M712.45,-532.39C716.84,-506.8 724.47,-462.34 729.62,-432.29"/>
<polygon fill="black" stroke="black" points="733.04,-433.11 731.28,-422.66 726.14,-431.92 733.04,-433.11"/>
<text text-anchor="middle" x="742.6" y="-481.32" font-family="Times,serif" font-size="14.00">transfer</text>
</g>
<!-- yBu4LoEdL_&#45;4C7fZzlce -->
<g id="node17" class="node">
<title>yBu4LoEdL_-4C7fZzlce</title>
<polygon fill="none" stroke="black" points="978.01,-678.28 1115,-653.16 1251.99,-678.28 1251.87,-718.94 978.13,-718.94 978.01,-678.28"/>
<text text-anchor="middle" x="1115" y="-693.72" font-family="Times,serif" font-size="14.00">permission</text>
<text text-anchor="middle" x="1115" y="-676.92" font-family="Times,serif" font-size="14.00">yBu4LoEdL_-4C7fZzlce</text>
</g>
<!-- Z9DwVKsH_QegKFOv0m2N -->
<g id="node18" class="node">
<title>Z9DwVKsH_QegKFOv0m2N</title>
<polygon fill="none" stroke="black" points="1038,-595.12 850.12,-553.52 1038,-511.92 1225.88,-553.52 1038,-595.12"/>
<text text-anchor="middle" x="1038" y="-557.72" font-family="Times,serif" font-size="14.00">origin</text>
<text text-anchor="middle" x="1038" y="-540.92" font-family="Times,serif" font-size="14.00">Z9DwVKsH_QegKFOv0m2N</text>
</g>
<!-- yBu4LoEdL_&#45;4C7fZzlce&#45;&gt;Z9DwVKsH_QegKFOv0m2N -->
<g id="edge18" class="edge">
<title>yBu4LoEdL_-4C7fZzlce-&gt;Z9DwVKsH_QegKFOv0m2N</title>
<path fill="none" stroke="black" d="M1096.36,-656.08C1086.82,-639.48 1075.04,-618.98 1064.57,-600.76"/>
<polygon fill="black" stroke="black" points="1067.68,-599.15 1059.66,-592.22 1061.61,-602.64 1067.68,-599.15"/>
<text text-anchor="middle" x="1114.55" y="-617.32" font-family="Times,serif" font-size="14.00">permissions</text>
</g>
<!-- hpnYgOS3HwgDgXvp53am -->
<g id="node19" class="node">
<title>hpnYgOS3HwgDgXvp53am</title>
<polygon fill="none" stroke="black" points="1127.28,-420.76 948.72,-420.76 948.72,-379.16 1127.28,-379.16 1127.28,-420.76"/>
<text text-anchor="middle" x="1038" y="-404.16" font-family="Times,serif" font-size="14.00">transfer</text>
<text text-anchor="middle" x="1038" y="-387.36" font-family="Times,serif" font-size="14.00">hpnYgOS3HwgDgXvp53am</text>
</g>
<!-- yBu4LoEdL_&#45;4C7fZzlce&#45;&gt;hpnYgOS3HwgDgXvp53am -->
<g id="edge20" class="edge">
<title>yBu4LoEdL_-4C7fZzlce-&gt;hpnYgOS3HwgDgXvp53am</title>
<path fill="none" stroke="black" d="M1167.59,-662.32C1192.94,-646.62 1220.85,-624.05 1235,-595.12 1251.24,-561.9 1253.66,-543.84 1235,-511.92 1210.35,-469.74 1163.11,-442.35 1121.07,-425.34"/>
<polygon fill="black" stroke="black" points="1122.51,-422.14 1111.92,-421.78 1119.97,-428.66 1122.51,-422.14"/>
<text text-anchor="middle" x="1281.55" y="-549.32" font-family="Times,serif" font-size="14.00">permissions</text>
</g>
<!-- Z9DwVKsH_QegKFOv0m2N&#45;&gt;hpnYgOS3HwgDgXvp53am -->
<g id="edge19" class="edge">
<title>Z9DwVKsH_QegKFOv0m2N-&gt;hpnYgOS3HwgDgXvp53am</title>
<path fill="none" stroke="black" d="M1038,-511.51C1038,-486.69 1038,-455.51 1038,-432.6"/>
<polygon fill="black" stroke="black" points="1041.5,-432.65 1038,-422.65 1034.5,-432.65 1041.5,-432.65"/>
<text text-anchor="middle" x="1043.83" y="-481.32" font-family="Times,serif" font-size="14.00">of</text>
</g>
<!-- eXdxD3UtsuSLzsgB4gzC -->
<g id="node22" class="node">
<title>eXdxD3UtsuSLzsgB4gzC</title>
<polygon fill="none" stroke="black" points="819.79,-310.8 549.69,-310.8 480.21,-227.6 750.31,-227.6 819.79,-310.8"/>
<text text-anchor="middle" x="650" y="-273.4" font-family="Times,serif" font-size="14.00">process</text>
<text text-anchor="middle" x="650" y="-256.6" font-family="Times,serif" font-size="14.00">eXdxD3UtsuSLzsgB4gzC</text>
</g>
<!-- hpnYgOS3HwgDgXvp53am&#45;&gt;eXdxD3UtsuSLzsgB4gzC -->
<g id="edge23" class="edge">
<title>hpnYgOS3HwgDgXvp53am-&gt;eXdxD3UtsuSLzsgB4gzC</title>
<path fill="none" stroke="black" d="M976.95,-378.7C925.5,-361.63 850.01,-336.58 784.53,-314.85"/>
<polygon fill="black" stroke="black" points="785.73,-311.55 775.13,-311.73 783.52,-318.2 785.73,-311.55"/>
<text text-anchor="middle" x="884.34" y="-333" font-family="Times,serif" font-size="14.00">inputs</text>
</g>
<!-- Y4a8JiQpHg5r0QWKlcK_&#45;&gt;eXdxD3UtsuSLzsgB4gzC -->
<g id="edge22" class="edge">
<title>Y4a8JiQpHg5r0QWKlcK_-&gt;eXdxD3UtsuSLzsgB4gzC</title>
<path fill="none" stroke="black" d="M721.72,-378.84C711.44,-363.27 696.74,-341.01 683.33,-320.68"/>
<polygon fill="black" stroke="black" points="686.33,-318.89 677.9,-312.47 680.49,-322.74 686.33,-318.89"/>
<text text-anchor="middle" x="714.7" y="-333" font-family="Times,serif" font-size="14.00">inputs</text>
</g>
<!-- V_xSLSUOxpzp4ySfu0bR -->
<g id="node21" class="node">
<title>V_xSLSUOxpzp4ySfu0bR</title>
<polygon fill="none" stroke="black" points="337.76,-388.72 485,-363.6 632.24,-388.72 632.1,-429.38 337.9,-429.38 337.76,-388.72"/>
<text text-anchor="middle" x="485" y="-404.16" font-family="Times,serif" font-size="14.00">permission</text>
<text text-anchor="middle" x="485" y="-387.36" font-family="Times,serif" font-size="14.00">V_xSLSUOxpzp4ySfu0bR</text>
</g>
<!-- V_xSLSUOxpzp4ySfu0bR&#45;&gt;eXdxD3UtsuSLzsgB4gzC -->
<g id="edge24" class="edge">
<title>V_xSLSUOxpzp4ySfu0bR-&gt;eXdxD3UtsuSLzsgB4gzC</title>
<path fill="none" stroke="black" d="M522.44,-369.74C541.91,-354.55 566.21,-335.58 588.37,-318.3"/>
<polygon fill="black" stroke="black" points="590.46,-321.1 596.19,-312.19 586.15,-315.58 590.46,-321.1"/>
<text text-anchor="middle" x="605.89" y="-333" font-family="Times,serif" font-size="14.00">permissions</text>
</g>
<!-- ILLi0VyCMR8EbG_Ume0c -->
<g id="node23" class="node">
<title>ILLi0VyCMR8EbG_Ume0c</title>
<polygon fill="none" stroke="black" points="626.49,-174.8 449.51,-174.8 449.51,-133.2 626.49,-133.2 626.49,-174.8"/>
<text text-anchor="middle" x="538" y="-158.2" font-family="Times,serif" font-size="14.00">transfer</text>
<text text-anchor="middle" x="538" y="-141.4" font-family="Times,serif" font-size="14.00">ILLi0VyCMR8EbG_Ume0c</text>
</g>
<!-- V_xSLSUOxpzp4ySfu0bR&#45;&gt;ILLi0VyCMR8EbG_Ume0c -->
<g id="edge26" class="edge">
<title>V_xSLSUOxpzp4ySfu0bR-&gt;ILLi0VyCMR8EbG_Ume0c</title>
<path fill="none" stroke="black" d="M447.58,-369.64C430.88,-354.16 413,-333.64 404.11,-310.8 390.7,-276.34 385.2,-259.37 404.11,-227.6 416.66,-206.51 437.71,-191.18 459.44,-180.19"/>
<polygon fill="black" stroke="black" points="460.88,-183.38 468.42,-175.94 457.88,-177.05 460.88,-183.38"/>
<text text-anchor="middle" x="437.56" y="-265" font-family="Times,serif" font-size="14.00">permissions</text>
</g>
<!-- eXdxD3UtsuSLzsgB4gzC&#45;&gt;ILLi0VyCMR8EbG_Ume0c -->
<g id="edge25" class="edge">
<title>eXdxD3UtsuSLzsgB4gzC-&gt;ILLi0VyCMR8EbG_Ume0c</title>
<path fill="none" stroke="black" d="M609.57,-227.33C595.04,-212.65 578.99,-196.43 565.78,-183.08"/>
<polygon fill="black" stroke="black" points="568.54,-180.9 559.02,-176.25 563.57,-185.82 568.54,-180.9"/>
<text text-anchor="middle" x="596.47" y="-197" font-family="Times,serif" font-size="14.00">of</text>
</g>
<!-- YYXILppbZ0p31oifpuF3 -->
<g id="node24" class="node">
<title>YYXILppbZ0p31oifpuF3</title>
<polygon fill="none" stroke="black" points="618.72,-57.6 461.28,-57.6 457.28,-53.6 457.28,-16 614.72,-16 618.72,-20 618.72,-57.6"/>
<polyline fill="none" stroke="black" points="614.72,-53.6 457.28,-53.6"/>
<polyline fill="none" stroke="black" points="614.72,-53.6 614.72,-16"/>
<polyline fill="none" stroke="black" points="614.72,-53.6 618.72,-57.6"/>
<text text-anchor="middle" x="538" y="-41" font-family="Times,serif" font-size="14.00">receipt</text>
<text text-anchor="middle" x="538" y="-24.2" font-family="Times,serif" font-size="14.00">YYXILppbZ0p31oifpuF3</text>
</g>
<!-- ILLi0VyCMR8EbG_Ume0c&#45;&gt;YYXILppbZ0p31oifpuF3 -->
<g id="edge27" class="edge">
<title>ILLi0VyCMR8EbG_Ume0c-&gt;YYXILppbZ0p31oifpuF3</title>
<path fill="none" stroke="black" d="M538,-132.93C538,-115.45 538,-89.79 538,-69.52"/>
<polygon fill="black" stroke="black" points="541.5,-69.54 538,-59.54 534.5,-69.54 541.5,-69.54"/>
<text text-anchor="middle" x="559.38" y="-102.6" font-family="Times,serif" font-size="14.00">transfer</text>
</g>
</g>
</svg>